<svg width="68" height="32" viewBox="0 0 68 32" fill="none" xmlns="http://www.w3.org/2000/svg">
<path d="M35.0508 11.0062L35.0798 1.55173L38.3852 1.56187C39.0438 1.56389 39.5866 1.67943 40.0137 1.90849C40.4408 2.13447 40.7584 2.43859 40.9665 2.82086C41.1747 3.20005 41.278 3.62047 41.2766 4.08212C41.2753 4.48836 41.202 4.8236 41.0565 5.08784C40.9141 5.35208 40.7258 5.56078 40.4914 5.71395C40.2601 5.86712 40.0089 5.98023 39.7379 6.05326L39.7376 6.14559C40.0268 6.16494 40.3173 6.26739 40.6092 6.45295C40.901 6.6385 41.1448 6.90393 41.3407 7.24923C41.5366 7.59453 41.6338 8.01647 41.6323 8.51505C41.6309 8.989 41.5218 9.41492 41.3052 9.79281C41.0886 10.1707 40.7476 10.4697 40.2822 10.6899C39.8168 10.9101 39.2117 11.019 38.467 11.0167L35.0508 11.0062ZM36.1988 9.99413L38.4701 10.0011C39.2179 10.0034 39.7493 9.86037 40.0641 9.57203C40.382 9.28063 40.5416 8.92719 40.5428 8.5117C40.5438 8.19163 40.4632 7.89593 40.3009 7.62459C40.1386 7.35018 39.9069 7.13096 39.6058 6.96692C39.3047 6.7998 38.948 6.71561 38.5355 6.71435L36.2089 6.70721L36.1988 9.99413ZM36.2119 5.71005L38.3355 5.71657C38.6802 5.71763 38.9912 5.65087 39.2686 5.5163C39.5491 5.38175 39.7713 5.19161 39.9352 4.9459C40.1021 4.7002 40.1861 4.41116 40.1871 4.07877C40.1884 3.66329 40.0448 3.31046 39.7564 3.02027C39.468 2.72701 39.0099 2.57942 38.382 2.57749L36.2215 2.57086L36.2119 5.71005ZM43.5058 11.0322L43.5348 1.57767L49.2408 1.59517L49.2376 2.61079L44.6766 2.5968L44.6668 5.79139L48.9324 5.80447L48.9293 6.82009L44.6637 6.80701L44.6538 10.0201L49.2887 10.0343L49.2856 11.0499L43.5058 11.0322ZM50.7841 2.61553L50.7873 1.59991L57.8781 1.62166L57.875 2.63728L54.902 2.62816L54.8761 11.067L53.7313 11.0635L53.7571 2.62465L50.7841 2.61553ZM58.8994 11.0794L57.6991 11.0757L61.1997 1.63185L62.3815 1.63548L65.8241 11.1006L64.6238 11.0969L61.8229 3.12951L61.7491 3.12928L58.8994 11.0794ZM59.3539 7.38758L64.1919 7.40242L64.1888 8.41804L59.3508 8.4032L59.3539 7.38758Z" fill="white" fill-opacity="0.9"/>
<path d="M30.0301 15.0195C30.0301 22.3384 21.3579 30.624 14.3428 30.624C7.32772 30.624 1.96973 22.3384 1.96973 15.0195C1.96973 7.70062 7.32772 1.37598 14.3428 1.37598C21.3579 1.37598 30.0301 7.70062 30.0301 15.0195Z" fill="#FFD11D"/>
<path d="M12.2113 10.9747C12.3082 11.0522 12.4914 11.0275 12.5179 11.2226L12.4148 11.2228C12.4603 11.3718 12.404 11.4949 12.3353 11.6014C12.3263 11.8301 12.3274 12.05 12.3064 12.2671C12.2844 12.4946 12.2411 12.7195 12.2062 12.9515L12.073 12.9457C12.2711 13.1586 12.2593 13.3979 12.2295 13.622L12.4484 13.7174C12.4684 13.7006 12.4884 13.6838 12.52 13.6573C12.4847 13.5949 12.4478 13.5295 12.4004 13.4457C12.5634 13.3472 12.5596 13.1853 12.5378 13.0064L12.3844 12.9632C12.5113 12.8039 12.5717 12.6002 12.5536 12.3933C12.5218 11.9367 12.6381 11.4957 12.7572 11.0613C12.7771 10.9889 12.8438 10.9306 12.9313 10.8048L12.6087 10.8569L12.6264 11.0926C12.4832 11.0068 12.3783 10.9438 12.2734 10.881L12.4453 10.4401L12.5593 10.4383C12.647 10.0998 12.9218 9.87859 13.128 9.59642L13.3141 9.55644L13.4309 9.69568L13.5881 9.60408C13.4938 9.55035 13.4358 9.51726 13.3759 9.48311C13.3781 9.45262 13.381 9.41284 13.3837 9.37446C13.5279 9.24431 13.6745 9.37596 13.8528 9.38414C13.8091 9.31024 13.7744 9.25173 13.7262 9.17035C13.8693 8.98814 14.1193 9.01658 14.297 8.91091C14.355 8.96711 14.4011 9.01169 14.5051 9.11243C14.4743 8.98265 14.457 8.90992 14.4499 8.87972L14.7135 8.65853C14.7249 8.71686 14.7327 8.75681 14.7495 8.84307L14.8935 8.64366C14.8615 8.65938 14.8773 8.64689 14.895 8.64356C15.196 8.58713 15.4949 8.51527 15.7989 8.48026C16.2102 8.42958 16.6289 8.44676 17.0388 8.53115C17.384 8.60511 17.7164 8.74649 18.0682 8.80265C18.1391 8.81389 18.2056 8.86039 18.2783 8.89251C18.2773 8.90475 18.2754 8.93122 18.2709 8.99172C18.3997 8.95352 18.541 8.98435 18.646 9.07357C19.0154 9.3557 19.0138 9.35789 19.0673 9.54509L19.4698 9.77034L19.3804 9.98359L19.5338 10.0349C19.6975 10.3208 19.8486 10.5848 20.0023 10.8534L19.8628 11.0003C20.0499 11.1983 20.0209 11.4436 19.9937 11.7243L20.2427 11.6798L20.2822 11.9373L20.1308 11.8436C20.0987 11.9069 20.033 11.9755 20.0349 12.0443C20.0433 12.2716 20.0641 12.4987 20.0971 12.7245C20.105 12.7818 20.1612 12.8338 20.1698 12.8477C20.1452 13.0349 20.0795 13.1964 20.1145 13.3347C20.2101 13.7126 20.0546 14.0345 19.9729 14.374C19.9452 14.4689 19.9126 14.5621 19.8753 14.6534C19.8428 14.634 19.8 14.6088 19.7544 14.5816C19.7459 14.5998 19.7261 14.6292 19.7311 14.6345C19.8085 14.7164 19.8753 14.7993 19.7889 14.9519L19.6139 15.0988L19.6248 15.5435L19.3907 15.6443C19.4733 15.9413 19.29 16.178 19.1644 16.4388L19.0398 16.4398L19.0068 16.778L18.7691 16.9775C18.8098 17.1316 18.8268 17.274 18.6317 17.3256L18.5098 17.7797L19.3871 17.6301L19.4139 17.5195L19.697 17.4058L19.7539 17.4736C19.7733 17.4658 19.8076 17.4575 19.807 17.4513C19.7959 17.3329 19.8947 17.2942 19.9637 17.2467C20.0533 17.185 20.1628 17.1524 20.2582 17.0978C20.3457 17.0476 20.4182 16.958 20.5112 16.9337C20.6386 16.9003 20.6242 16.7682 20.7113 16.7006C20.8081 16.6255 20.9491 16.6223 21.0181 16.4855C21.0727 16.3772 21.2018 16.3067 21.3022 16.2248C21.6154 15.97 21.8352 15.6383 22.0558 15.306C22.1913 15.1021 22.3546 14.916 22.4766 14.7046C22.6751 14.371 22.8536 14.0256 23.0114 13.67C23.083 13.5025 23.2539 13.3774 23.2273 13.1645C23.219 13.099 23.3567 13.0586 23.2549 12.964C23.238 12.9483 23.2967 12.8601 23.3067 12.8025C23.32 12.7245 23.3148 12.6429 23.3269 12.5645C23.3495 12.417 23.3787 12.2707 23.4116 12.0881L23.6158 12.3314C23.5562 12.4966 23.5562 12.4966 23.6648 12.8478L23.8139 12.7227C23.7279 12.4885 23.8328 12.2459 23.8088 11.996L23.9643 12.0168L24.0442 12.3236C24.0764 12.2931 24.134 12.2649 24.1359 12.2319C24.1414 12.1379 24.1241 12.0419 24.1102 11.8835C24.209 11.9517 24.264 11.9896 24.3312 12.036L24.6508 12.0076L24.4828 12.3259C24.542 12.3653 24.6108 12.411 24.6948 12.4668L24.6113 12.821L24.8375 12.7809L24.8112 13.0548L24.5743 13.0965C24.6766 13.1715 24.7298 13.2105 24.7791 13.2468L24.7413 13.3892C24.7343 13.3835 24.7049 13.36 24.6514 13.3172L24.5283 13.7669C24.5758 13.7741 24.6129 13.7798 24.5987 13.7776L24.628 14.1095L24.4581 14.1078C24.4748 14.1941 24.4915 14.2804 24.5085 14.3687L24.3444 14.5063C24.2767 14.7463 24.2318 14.9688 24.15 15.1757C24.077 15.3604 23.852 15.4548 23.8319 15.7017L23.596 15.6703L23.426 15.8352L23.6766 15.7715C23.5654 16.0341 23.584 16.3666 23.2166 16.436L23.2025 16.6316L23.0708 16.6292C23.0262 16.8161 22.9081 16.9463 22.6798 16.9542L22.6429 17.2308L22.424 17.3201C22.417 17.3401 22.4139 17.401 22.3827 17.4243C22.3482 17.4498 22.281 17.4282 22.2404 17.4497C22.1856 17.4854 22.1347 17.5267 22.0884 17.5728C22.0521 17.6105 22.0113 17.6435 21.9668 17.671C21.9241 17.691 21.8703 17.6882 21.7969 17.6991C21.7948 18.0288 21.4355 17.9118 21.2712 18.168L21.2369 17.7958C21.1392 17.7893 21.0782 17.9588 21.099 18.1937L20.9955 18.1119C20.8242 18.098 20.8523 18.2844 20.7679 18.367L20.5374 18.3498L20.5207 18.4722C20.4821 18.4451 20.4514 18.4236 20.3988 18.3868C20.1502 18.4936 19.884 18.61 19.6125 18.7125C19.519 18.7544 19.4092 18.7444 19.3218 18.6859C19.2375 18.7539 19.1667 18.8618 19.0834 18.8698C18.6219 18.9136 18.1573 18.9315 17.6941 18.9624C17.6218 18.9674 17.5517 18.996 17.4796 19.0082C17.3935 19.0229 17.3063 19.0317 17.2088 19.0445C17.2209 19.0733 17.2387 19.116 17.2688 19.188C17.0999 19.2979 16.9894 19.5019 16.744 19.5193L16.6322 19.7991C16.3472 19.8193 16.2483 20.1825 15.9683 20.2042L15.8205 20.4272C15.7631 20.3918 15.7208 20.3657 15.6757 20.3379C15.6192 20.5023 15.4917 20.5542 15.335 20.6149C15.1871 20.6722 15.0665 20.795 14.8855 20.7679C14.8818 20.7925 14.8781 20.817 14.8706 20.8682L14.7361 20.8743L14.6853 20.994C14.5265 21.0716 14.3705 21.1609 14.2046 21.2257C13.8652 21.3581 13.5646 21.5816 13.1825 21.6185C13.0538 21.6309 12.9304 21.7069 12.8107 21.7659C12.1088 22.1116 11.345 22.222 10.5736 22.3076C10.1396 22.3583 9.6991 22.3514 9.26342 22.2869C9.12033 22.2651 8.968 22.2309 8.83257 22.2586C8.6852 22.2885 8.57631 22.1904 8.43738 22.1939C8.06181 22.2033 7.7069 22.05 7.34364 21.9674C6.99021 21.8808 6.64238 21.7701 6.3026 21.636C5.94263 21.5007 5.57018 21.3746 5.24502 21.1738C4.9385 20.9844 4.59281 20.8526 4.32757 20.5925C4.2953 20.5608 4.21826 20.5728 4.18971 20.5402C4.02725 20.3543 3.7925 20.2674 3.61826 20.1029C3.49172 19.9834 3.39008 19.8371 3.258 19.6797L3.3026 19.3729L3.67446 19.2131C3.71765 19.2466 3.74735 19.2695 3.77931 19.2942L3.89743 19.1951C4.01564 19.2227 4.13081 19.2332 4.23175 19.2777C4.33651 19.3195 4.43119 19.3844 4.50866 19.4675C4.76391 19.7717 5.13846 19.8769 5.45721 20.071C5.68887 20.2119 5.94084 20.3217 6.17647 20.4625C6.30321 20.5383 6.45787 20.5662 6.60179 20.6105C6.92601 20.7102 7.23966 20.8449 7.57084 20.9229C7.75362 20.966 7.92863 21.0521 8.11215 21.0857C8.51093 21.1584 8.91176 21.2271 9.3138 21.2664C10.1615 21.3495 10.9848 21.2097 11.7964 21.0109C11.9719 20.9679 12.1332 20.8668 12.2961 20.7826C12.5133 20.6701 12.7694 20.6545 12.9751 20.5143C13.2722 20.3119 13.6372 20.231 13.9179 19.9947C14.0198 19.9092 14.1553 19.8645 14.2724 19.796C14.3895 19.7275 14.4561 19.587 14.6307 19.5917C14.6902 19.5934 14.7583 19.4791 14.807 19.4071C14.9473 19.1988 15.0859 19.0898 15.3325 19.0134L15.3754 18.8497C15.424 18.8498 15.4731 18.8475 15.5218 18.8505C15.5609 18.8528 15.5997 18.8614 15.624 18.865L15.6354 18.5555C15.4892 18.4868 15.3079 18.409 15.1333 18.3176C14.9576 18.2255 14.7926 18.1111 14.6156 18.0224C14.4311 17.9332 14.2591 17.8192 14.1042 17.6837L13.9732 17.6702C13.876 17.5544 13.7774 17.427 13.6679 17.3098C13.5905 17.2269 13.5502 17.1001 13.3991 17.0937C13.3543 17.0919 13.2825 17.0054 13.2716 16.9496C13.2224 16.6979 13.0132 16.5594 12.881 16.367C12.7639 16.1966 12.6549 16.021 12.7007 15.7848C12.5735 15.6614 12.4838 15.5045 12.4423 15.3333C12.4157 15.214 12.3065 15.0988 12.3125 14.9883C12.3203 14.8453 12.2138 14.776 12.1855 14.673C12.1254 14.455 11.9762 14.2326 12.1613 13.9906L11.9732 13.945L12.0406 13.6625C12.0243 13.6161 11.9835 13.5003 11.9201 13.3205C11.9182 13.1073 11.8622 12.8079 11.9281 12.5425C11.9929 12.2815 11.9608 12.0216 12.0069 11.7683C12.0555 11.4996 12.1416 11.2388 12.2113 10.9747ZM15.5507 9.73933C15.404 9.69741 15.291 9.66508 15.1814 9.63396L15.1978 9.87745C15.1065 9.83517 15.0517 9.80981 14.9887 9.7807C15.0069 9.84584 15.0231 9.90373 15.0382 9.95796L14.9621 10.0218C14.906 9.9742 14.8488 9.92544 14.781 9.86781L14.5247 10.0828C14.2785 9.97833 14.1097 10.0106 14.1246 10.1471C14.1635 10.1553 14.2086 10.1532 14.2373 10.1742C14.2637 10.1936 14.2724 10.2378 14.3068 10.3073C14.1829 10.3094 14.082 10.2982 13.9884 10.3179C13.9353 10.3291 13.8942 10.3909 13.8284 10.4462L14.0077 10.4925C14.0142 10.7548 14.0144 10.7552 13.806 10.7938C13.7748 10.8675 13.7147 10.9397 13.7263 10.9998C13.7409 11.0747 13.8086 11.1385 13.703 11.1795C13.6345 11.1558 13.5719 11.134 13.4768 11.1009C13.4905 11.3203 13.5015 11.4957 13.5123 11.671L13.3724 11.6658L13.416 11.9366L13.2908 12.2134L13.4089 12.2392L13.1414 12.6511L13.2426 12.6665C13.3059 12.8497 13.3668 13.0262 13.4405 13.2394C13.6058 12.9591 13.4354 12.6936 13.497 12.4446C13.5585 12.1955 13.5826 11.9369 13.6276 11.6554L13.7443 11.7946C13.7202 11.987 13.7261 12.1478 13.6756 12.2862C13.6225 12.4318 13.7021 12.5827 13.6411 12.7137C13.5724 12.8609 13.6563 12.9977 13.6543 13.1388C13.6508 13.3728 13.7884 13.6166 13.6281 13.8304C13.7534 14.022 13.8388 14.2161 13.8216 14.4481L14.0216 14.6865L13.9459 14.8215C14.0675 14.8532 14.1713 14.8912 14.1629 15.0448C14.1536 15.2507 14.2364 15.4529 14.3887 15.5961C14.5035 15.712 14.54 15.8629 14.6188 15.9938C14.6779 16.0921 14.7909 16.1612 14.7717 16.2992C14.7701 16.3102 14.8094 16.3281 14.8298 16.3427L14.9658 16.2934C14.9693 16.3443 14.9795 16.3948 14.9962 16.4435C15.0224 16.4907 15.0572 16.5328 15.0987 16.5674C15.1386 16.6028 15.1948 16.6212 15.2302 16.6597C15.261 16.6931 15.2617 16.7659 15.2948 16.7837C15.4863 16.8862 15.6459 17.0263 15.8135 17.1633C16.02 17.3285 16.2641 17.438 16.5219 17.4811C16.7187 17.259 16.779 17.003 16.9441 16.7954C17.1195 16.5748 17.1818 16.2655 17.3166 16.0077C17.5721 15.5193 17.6241 14.9447 17.9291 14.4778C17.9522 14.4425 17.9307 14.3767 17.9296 14.3253C17.9228 14.2822 17.9223 14.2386 17.9283 14.1957C18.0787 13.6776 18.1642 13.1407 18.1829 12.5975C18.1968 12.3032 18.1563 12.0156 18.1094 11.7256C18.0834 11.5648 17.9997 11.4093 18.0027 11.255C18.008 10.9797 17.852 10.771 17.7296 10.5601C17.5966 10.3308 17.4061 10.1274 17.2149 9.93931C17.013 9.74847 16.7656 9.61388 16.4984 9.5495C16.4195 9.52871 16.3255 9.58165 16.2417 9.56996C16.1578 9.55828 16.0785 9.50879 15.9859 9.47115L15.9637 9.59872L15.738 9.58171L15.5507 9.73933Z" fill="black" fill-opacity="0.84"/>
</svg>
