<?xml version="1.0" encoding="UTF-8"?>
<svg viewBox="0 0 500 500" version="1.1" xmlns="http://www.w3.org/2000/svg" xmlns:xlink="http://www.w3.org/1999/xlink">
    <title>Artboard</title>
    <g id="Artboard" stroke="none" stroke-width="1" fill="none" fill-rule="evenodd">
        <path d="M469.221907,234.680359 C469.221907,349.038244 333.718602,478.5 224.107649,478.5 C114.496695,478.5 30.7780925,349.038244 30.7780925,234.680359 C30.7780925,120.322474 114.496695,21.5 224.107649,21.5 C333.718602,21.5 469.221907,120.322474 469.221907,234.680359 Z" id="Path" fill="#FFD11D" fill-rule="nonzero"></path>
        <g id="scribbles-scribbles-62" transform="translate(224.812857, 255.378595) rotate(-40.000000) translate(-224.812857, -255.378595) translate(57.812857, 161.378595)" fill="#000000" fill-opacity="0.84" fill-rule="nonzero">
            <path d="M194.874828,7.86666667 C195.256242,9.76866667 197.697293,11.312 196.054626,13.914 L194.818586,12.88 C193.866343,15.1206667 191.956687,16.03 190.064485,16.6133333 C187.65899,19.2613333 185.464242,21.9046667 183.032889,24.292 C180.483879,26.794 177.707313,29.0506667 174.959838,31.4773333 L173.423192,30.07 C173.656566,34.6086667 171.111434,37.354 168.504242,39.7366667 L170.166303,43.0766667 C170.574869,43.0766667 170.982141,43.0766667 171.626667,43.0766667 C171.831596,41.9753333 172.045576,40.8226667 172.320323,39.3433333 C175.260444,39.8006667 176.841697,37.8246667 178.377697,35.4653333 L176.974869,33.4073333 C180.093821,32.7743632 182.863334,30.943635 184.723394,28.2853333 C188.929939,22.5006667 194.750707,18.3893333 200.539152,14.3866667 C201.504323,13.72 202.887758,13.6926667 205.198869,13.0653333 L200.815192,10.4486667 L198.659232,13.4486667 C197.806545,10.982 197.183354,9.17466667 196.559515,7.37 L203.044848,3.81933333 L204.427636,4.94266667 C208.876606,1.77066667 214.388364,1.884 219.689374,0.576666667 L222.318545,1.96733333 L222.318545,4.80733333 L225.120323,5.29 C224.531394,3.7 224.168727,2.72066667 223.795071,1.71066667 C224.128,1.368 224.561778,0.920666667 224.98004,0.488666667 C228.013253,0.379333333 228.445737,3.42733333 230.497616,5.316 C230.716121,3.992 230.888727,2.94333333 231.129212,1.48533333 C234.671838,0.741333333 237.379232,3.59333333 240.567596,4.11333333 C240.696889,5.368 240.80097,6.36466667 241.033697,8.61466667 C241.968485,6.752 242.492121,5.708 242.70998,5.27466667 L248.086626,5.27466667 C247.637333,6.08733333 247.329616,6.644 246.664404,7.84533333 L250.390626,6.90466667 C249.849535,6.77133333 250.164364,6.78066667 250.410667,6.91933333 C254.579717,9.26666667 258.879354,11.4086667 262.869333,14.0426667 C268.301052,17.5665839 273.140761,21.978191 277.198869,27.1046667 C280.587636,31.4566667 283.146343,36.4873333 286.793697,40.6933333 C287.529374,41.54 287.857778,42.764 288.405333,43.8786667 C288.271515,44.016 287.982545,44.3133333 287.320566,44.992 C289.246259,45.828592 290.627911,47.6167852 290.988606,49.7393333 C292.57697,56.8266667 292.535596,56.8366667 291.29503,59.614 L293.851152,66.3533333 L290.639515,68.008 L291.960242,70.162 C291.047434,75.2286667 290.204444,79.9066667 289.347232,84.6646667 L286.201535,85.0226667 C286.452364,89.2706667 283.642182,91.916 280.497778,95.0026667 L283.92404,96.9713333 L281.810747,100.449333 L280.939313,97.8073333 C279.920485,98.2433333 278.44396,98.404 277.776162,99.246 C275.593921,102.05203 273.56186,104.97883 271.689051,108.013333 C271.208081,108.777333 271.358061,109.964667 271.321859,110.218 C269.147798,112.212 266.739071,113.484667 265.768081,115.492 C263.117576,120.974667 258.022788,123.266 253.635879,126.509333 C252.350666,127.366294 251.023906,128.155096 249.660768,128.872667 C249.466828,128.314 249.208242,127.582667 248.935434,126.799333 C248.65099,126.932667 248.118303,127.086 248.125414,127.199333 C248.228848,128.956667 248.195232,130.62 245.629414,131.578667 L242.059636,131.578667 L237.723152,137.012 L233.90901,135.866 C231.915313,140.251333 227.344162,141.243333 223.22101,143.104 L221.718626,141.864667 L217.927111,145.580667 L213.078626,145.580667 C212.017131,147.834667 210.790788,149.71 207.937293,148.367333 L201.917414,152.579333 L213.921616,159.6 L215.352889,158.544 L219.88396,160.027333 L219.88396,161.41 C220.193616,161.511333 220.688162,161.757333 220.741818,161.676667 C221.798141,160.148 223.370343,160.676667 224.67297,160.802 C226.366061,160.963333 228.003556,161.673333 229.694061,161.976667 C231.245576,162.254667 233.01301,161.91 234.369939,162.554 C236.230465,163.433333 237.385697,161.708 239.105939,161.773333 C241.018828,161.846667 242.739071,163.224 244.938343,162.28 C246.680566,161.532 248.934141,161.984667 250.958869,162.013333 C257.265778,162.108 263.227475,160.346667 269.206626,158.584667 C272.87596,157.504 276.699798,156.918 280.283798,155.612 C286.008698,153.613179 291.615732,151.271874 297.076364,148.6 C299.614384,147.314667 302.916525,147.533333 304.736323,144.717333 C305.295515,143.850667 307.348687,144.750667 307.080404,142.595333 C307.035798,142.238 308.625455,141.771333 309.322343,141.182 C310.265535,140.382 311.023192,139.354 311.954101,138.536667 C313.706667,136.998 315.525172,135.540667 317.754182,133.684667 L317.754182,138.648667 C315.38101,140.026667 315.38101,140.026667 313.153939,145.321333 L316.195556,145.321333 C317.518222,141.654667 321.210828,139.804 323.432727,136.572667 L325.084444,138.382667 L322.960808,142.857333 C323.652525,142.816 324.624808,143.057333 324.979717,142.680667 C325.988848,141.610667 326.745859,140.288 328.17002,138.253333 C328.668444,140.061333 328.945778,141.068 329.283879,142.297333 L333.394747,145.168 L328.186182,147.29 C328.499717,148.356667 328.864323,149.594 329.309091,151.106667 L324.751515,154.506667 L327.862949,156.298667 L324.797414,159.312667 L321.542465,157.432 C322.013737,159.358667 322.258747,160.36 322.48501,161.288667 L320.602505,162.613333 C320.574707,162.474667 320.45899,161.898 320.248242,160.849333 L314.259394,164.994667 C314.754586,165.558667 315.142465,165.999333 314.994424,165.830667 L312.01099,170.097333 L309.994667,168.371333 C309.328162,169.571333 308.660364,170.771333 307.977051,171.998667 L304.631596,171.998667 C301.410909,174.190667 298.638869,176.403333 295.581091,178.058 C292.851717,179.536 289.211475,178.406667 286.491152,181.16 L283.983515,178.414 L280.291556,178.680667 L283.931798,180.434667 C279.963152,182.461333 276.845899,186.628667 271.751111,183.768 L269.617778,185.968 L268.066263,184.616667 C265.654303,186.405333 262.933333,186.778667 260.121859,184.58 L256.901172,187.519333 L253.384404,186.39 C253.099313,186.559333 252.450909,187.256667 251.844525,187.222667 C251.174788,187.182 250.587152,186.247333 249.884444,186.097333 C248.870316,185.974481 247.846796,185.956837 246.829253,186.044667 C246.016557,186.131529 245.196632,186.116082 244.387556,185.998667 C243.676444,185.809333 243.059717,185.235333 242.071919,184.628 C238.736162,188.554 235.610505,183.544 231.069737,184.961333 L234.397091,180.161333 C233.293576,179.102 230.860929,180.518667 228.750869,183.539333 L228.333253,181.520667 C226.422303,179.634 224.887596,182.146667 223.047758,182.287333 L220.461899,179.767333 L219.032566,181.064667 C218.841859,180.352 218.690586,179.786667 218.430707,178.818 C214.382545,177.599333 210.026667,176.319333 205.747717,174.818 C204.207745,174.381462 202.994051,173.158302 202.535434,171.580667 C200.84299,171.548 198.911354,172.128667 197.835636,171.387333 C191.872,167.276667 186.130101,162.824667 180.275717,158.542667 C179.359677,157.876 178.234828,157.514667 177.248323,156.937333 C176.070465,156.248 174.937859,155.477333 173.642343,154.651333 C173.497535,155.118 173.282263,155.807333 172.920242,156.971333 C169.793293,156.590667 166.42198,157.922 163.309899,155.666667 L159.162828,157.892 C155.548444,155.272 150.716768,158.625333 147.146343,156.073333 L143.138263,157.258 C142.80598,156.258 142.561616,155.520667 142.301091,154.734667 C139.973818,156.134667 137.927111,155.476 135.442101,154.628667 C133.096081,153.828667 130.419071,154.087333 128.524929,151.946 C128.232727,152.202667 127.943111,152.458667 127.33996,152.996 L125.667556,151.718667 L123.857455,152.641333 C121.177859,151.974667 118.413576,151.477333 115.776646,150.585333 C110.383838,148.762 104.542384,148.418 99.5982222,145.022 C97.9335758,143.878 95.6922828,143.548667 93.6669091,143.052 C81.7939394,140.140667 71.5416566,133.790667 61.4490505,127.068 C55.7450996,123.315747 50.5428367,118.808444 45.9752727,113.661333 C44.4812929,111.963333 43.0015354,110.024 41.1028687,108.994667 C39.0380606,107.873333 38.7206465,105.604667 37.0223838,104.251333 C32.4324848,100.592 29.7244444,95.192 26.2057374,90.5553333 C22.8448911,85.9693303 19.7935061,81.1506538 17.0731313,76.1333333 C14.1233131,70.8986667 10.9317172,65.6486667 9.0569697,59.9786667 C7.29018182,54.6333333 4.47612121,49.584 3.91369697,43.8066667 C3.84581818,43.1033333 2.80307071,42.4733333 2.78949495,41.7953333 C2.71191919,37.9386667 0.774464646,34.5413333 0.341333333,30.822 C0.0271515152,28.1206667 0.279919192,25.3486667 0.279919192,22.138 L3.89494949,18.914 L9.95038384,20.7366667 C10.1313939,21.5706667 10.2561616,22.144 10.3906263,22.7606667 L12.8,22.7606667 C13.9377778,24.278 15.2106667,25.5606667 15.972202,27.1066667 C16.8060492,28.6596386 17.2874597,30.3874281 17.380202,32.16 C17.380202,38.3646667 20.8064646,43.386 22.6728081,48.91 C24.0303838,52.9233333 25.9432727,56.7686667 27.3493333,60.8206667 C28.105697,63 29.6766061,64.8873333 30.9546667,66.8626667 C33.8333737,71.3133333 36.2349899,76.0753333 39.415596,80.3353333 C41.1707475,82.6866667 42.4003232,85.4753333 44.260202,87.72 C48.3025455,92.596 52.4108283,97.4433333 56.8274747,101.952667 C66.139798,111.46 77.3986263,118.056667 89.1086869,123.828 C91.6421818,125.076667 94.5881212,125.486667 97.3834343,126.113333 C101.112242,126.949333 104.334869,129.334 108.205253,129.722667 C113.793939,130.284 118.976,132.982 124.708202,132.972 C126.786586,132.972 128.857859,133.798667 130.947232,134.154667 C133.036606,134.510667 135.245576,133.497333 137.287758,135.308 C137.984,135.925333 139.94602,135.241333 141.251879,134.868667 C145.024,133.785333 147.777293,133.872667 151.496404,135.434 L153.653657,133.905333 C154.235475,134.394667 154.845737,134.86 155.399111,135.385333 C155.843232,135.805333 156.222061,136.298667 156.475475,136.585333 L159.720727,132.995333 C158.660525,130.704667 157.271919,127.952667 156.100525,125.105333 C154.92202,122.238667 154.096485,119.210667 152.868202,116.372 C151.556697,113.452003 150.641534,110.359597 150.148525,107.182 L148.716606,105.705333 C148.716606,103.342667 148.816808,100.827333 148.682343,98.3253333 C148.58796,96.5553333 149.379232,94.6326667 147.635071,93.038 C147.117899,92.5666667 147.126303,90.8106667 147.556202,90.0333333 C149.495596,86.526 148.382384,82.7666667 148.732121,79.1366667 C149.042424,75.92 149.502061,72.7246667 152.421495,70.3573333 C152.139329,67.6028389 152.640452,64.8231888 153.863758,62.3573333 C154.742949,60.6626667 154.593616,58.186 155.774707,56.9246667 C157.304242,55.2906667 156.725657,53.3913333 157.421253,51.8753333 C158.892606,48.662 159.339313,44.5013333 163.986747,43.464 L162.192162,41.0286667 L165.836929,38.3246667 C166.107152,37.6046667 166.782061,35.8093333 167.82998,33.0206667 C169.947152,30.4493333 172.284121,26.3033333 175.738182,23.7886667 C179.135354,21.3153333 181.362424,17.882 184.457697,15.3133333 C187.737859,12.586 191.388444,10.328 194.874828,7.86666667 Z M247.252687,26.62 C245.918384,24.6453333 244.890505,23.1233333 243.891071,21.65 L241.641374,24.7286667 C240.973576,23.306 240.572121,22.452 240.111192,21.4713333 C239.674182,22.4333333 239.286303,23.2886667 238.922343,24.0893333 L237.370828,24.0893333 C237.176889,22.956 236.982949,21.7986667 236.749576,20.4273333 L231.522263,20.4273333 C229.625535,16.704 227.280162,15.3946667 226.087434,17.178 C226.470788,17.666 227.032566,18.094 227.164444,18.634 C227.28598,19.1306667 226.945939,19.748 226.660202,20.9253333 C225.155232,19.7066667 224.059475,18.5586667 222.74198,17.8546667 C221.99402,17.4546667 220.881455,17.7826667 219.538747,17.7826667 L221.219556,20.1373333 C218.663434,23.3426667 218.661495,23.3493333 215.778909,21.718 C214.666343,22.2873333 213.220848,22.5486667 212.75604,23.3846667 C212.179394,24.4266667 212.348121,25.8706667 210.672485,25.3006667 C210.090667,24.3286667 209.560566,23.4386667 208.754424,22.088 C206.714828,24.852 205.084444,27.0613333 203.453414,29.2686667 L201.831434,27.802 L199.633455,31.4813333 L195.355152,33.536 L196.508444,35.0313333 L189.170424,37.2753333 L190.226747,38.4753333 C189.144566,41.3033333 188.101172,44.0286667 186.841859,47.32 C191.634747,45.6253333 192.263111,40.736 195.500606,38.3733333 C198.738101,36.0106667 201.625212,33.1573333 204.990061,30.24 L204.990061,33.078 C202.768162,35.1393333 201.224404,37.1226667 199.229414,38.2726667 C197.132283,39.4813333 196.568566,42.088 194.523152,43.042 C192.221737,44.114 191.852606,46.5953333 190.41099,48.2633333 C188.019071,51.0293333 187.217455,55.33 183.151192,56.278 C182.726465,59.83 181.798788,63.0113333 179.264,65.6153333 L179.264,70.4773333 L177.001374,71.3333333 C178.137859,72.9333333 178.998949,74.4306667 177.356929,76.1853333 C175.176191,78.5565168 174.136363,81.808202 174.521535,85.052 C174.731636,87.5926667 173.653333,89.7653333 173.281616,92.1226667 C173.001697,93.8933333 173.660444,95.856 172.043636,97.314 C171.914343,97.4293333 172.205899,98.0393333 172.302222,98.4186667 L174.425859,99.194 C173.955977,99.8392815 173.571406,100.546146 173.282263,101.296 C173.12178,102.124834 173.116076,102.977628 173.265455,103.808667 C173.385697,104.633333 173.875071,105.418 173.911919,106.234667 C173.944889,106.942667 173.221495,107.821333 173.439354,108.368 C174.701899,111.516667 175.205495,114.796667 175.835152,118.12 C176.648382,122.171339 178.470403,125.93454 181.121939,129.039333 C185.708606,128.358 189.001051,125.898667 193.064081,125.072 C197.378586,124.193333 201.229576,121.116667 205.432889,119.385333 C213.39604,116.105333 219.789576,109.75 228.130263,107.225333 C228.761212,107.034 229.164606,106.031333 229.666909,105.404 C230.018466,104.820194 230.451753,104.293167 230.952727,103.84 C237.95767,99.1488936 244.372984,93.582178 250.052525,87.2666667 C253.174303,83.8846667 255.578505,80.0353333 257.930343,76.0926667 C259.234263,73.9073333 259.793455,71.2046667 261.379232,69.388 C264.208162,66.1466667 264.43701,62.0826667 265.089293,58.3286667 C265.800404,54.2473333 265.563798,49.9006667 265.164283,45.7286667 C264.664237,41.4164374 263.054721,37.3206513 260.502626,33.866 C259.766949,32.8246667 258.110707,32.5146667 257.224404,31.5326667 C256.338101,30.5506667 255.886222,29.162 255.155717,27.7813333 L253.608727,29.0853333 L251.077818,26.6146667 L247.252687,26.62 Z" id="Shape"></path>
        </g>
    </g>
</svg>