<svg width="68" height="32" viewBox="0 0 68 32" fill="none" xmlns="http://www.w3.org/2000/svg">
<path d="M35.0508 11.0062L35.0798 1.55176L38.3852 1.5619C39.0438 1.56392 39.5866 1.67946 40.0137 1.90852C40.4408 2.1345 40.7584 2.43862 40.9665 2.82089C41.1747 3.20008 41.278 3.6205 41.2766 4.08215C41.2753 4.48839 41.202 4.82363 41.0565 5.08787C40.9141 5.35211 40.7258 5.56081 40.4914 5.71398C40.2601 5.86715 40.0089 5.98026 39.7379 6.05329L39.7376 6.14562C40.0268 6.16497 40.3173 6.26742 40.6092 6.45298C40.901 6.63853 41.1448 6.90396 41.3407 7.24926C41.5366 7.59456 41.6338 8.0165 41.6323 8.51508C41.6309 8.98903 41.5218 9.41495 41.3052 9.79284C41.0886 10.1707 40.7476 10.4697 40.2822 10.6899C39.8168 10.9101 39.2117 11.019 38.467 11.0167L35.0508 11.0062ZM36.1988 9.99416L38.4701 10.0011C39.2179 10.0034 39.7493 9.8604 40.0641 9.57206C40.382 9.28066 40.5416 8.92722 40.5428 8.51173C40.5438 8.19166 40.4632 7.89596 40.3009 7.62462C40.1386 7.35021 39.9069 7.13099 39.6058 6.96695C39.3047 6.79983 38.948 6.71564 38.5355 6.71438L36.2089 6.70724L36.1988 9.99416ZM36.2119 5.71008L38.3355 5.7166C38.6802 5.71766 38.9912 5.6509 39.2686 5.51633C39.5491 5.38178 39.7713 5.19164 39.9352 4.94593C40.1021 4.70023 40.1861 4.41119 40.1871 4.0788C40.1884 3.66332 40.0448 3.31049 39.7564 3.0203C39.468 2.72704 39.0099 2.57945 38.382 2.57752L36.2215 2.57089L36.2119 5.71008ZM43.5058 11.0322L43.5348 1.5777L49.2408 1.5952L49.2376 2.61082L44.6766 2.59683L44.6668 5.79142L48.9324 5.8045L48.9293 6.82012L44.6637 6.80704L44.6538 10.0201L49.2887 10.0343L49.2856 11.0499L43.5058 11.0322ZM50.7841 2.61556L50.7873 1.59994L57.8781 1.62169L57.875 2.63731L54.902 2.62819L54.8761 11.067L53.7313 11.0635L53.7571 2.62468L50.7841 2.61556ZM58.8994 11.0794L57.6991 11.0757L61.1997 1.63188L62.3815 1.63551L65.8241 11.1006L64.6238 11.0969L61.8229 3.12954L61.7491 3.12931L58.8994 11.0794ZM59.3539 7.38761L64.1919 7.40245L64.1888 8.41807L59.3508 8.40323L59.3539 7.38761Z" fill="black" fill-opacity="0.94"/>
<path d="M30.0301 15.0195C30.0301 22.3384 21.3579 30.624 14.3428 30.624C7.32772 30.624 1.96973 22.3384 1.96973 15.0195C1.96973 7.70062 7.32772 1.37598 14.3428 1.37598C21.3579 1.37598 30.0301 7.70062 30.0301 15.0195Z" fill="#FFD11D"/>
<path d="M12.2113 10.9745C12.3082 11.052 12.4914 11.0273 12.5179 11.2224L12.4148 11.2226C12.4603 11.3716 12.404 11.4947 12.3353 11.6012C12.3263 11.8299 12.3274 12.0498 12.3064 12.2669C12.2844 12.4944 12.2411 12.7193 12.2062 12.9513L12.073 12.9455C12.2711 13.1584 12.2593 13.3977 12.2295 13.6218L12.4484 13.7172C12.4684 13.7004 12.4884 13.6836 12.52 13.6571C12.4847 13.5947 12.4478 13.5293 12.4004 13.4455C12.5634 13.347 12.5596 13.1851 12.5378 13.0062L12.3844 12.963C12.5113 12.8037 12.5717 12.6 12.5536 12.3931C12.5218 11.9365 12.6381 11.4955 12.7572 11.0611C12.7771 10.9887 12.8438 10.9304 12.9313 10.8046L12.6087 10.8567L12.6264 11.0924C12.4832 11.0066 12.3783 10.9436 12.2734 10.8808L12.4453 10.4399L12.5593 10.4381C12.647 10.0996 12.9218 9.87841 13.128 9.59624L13.3141 9.55626L13.4309 9.6955L13.5881 9.6039C13.4938 9.55017 13.4358 9.51708 13.3759 9.48293C13.3781 9.45244 13.381 9.41266 13.3837 9.37428C13.5279 9.24413 13.6745 9.37578 13.8528 9.38396C13.8091 9.31006 13.7744 9.25155 13.7262 9.17017C13.8693 8.98796 14.1193 9.0164 14.297 8.91073C14.355 8.96693 14.4011 9.01151 14.5051 9.11225C14.4743 8.98247 14.457 8.90974 14.4499 8.87954L14.7135 8.65835C14.7249 8.71668 14.7327 8.75663 14.7495 8.84289L14.8935 8.64348C14.8615 8.6592 14.8773 8.64671 14.895 8.64338C15.196 8.58695 15.4949 8.51509 15.7989 8.48008C16.2102 8.4294 16.6289 8.44658 17.0388 8.53097C17.384 8.60493 17.7164 8.74631 18.0682 8.80247C18.1391 8.81371 18.2056 8.86021 18.2783 8.89233C18.2773 8.90457 18.2754 8.93104 18.2709 8.99154C18.3997 8.95334 18.541 8.98417 18.646 9.07339C19.0154 9.35552 19.0138 9.35771 19.0673 9.54491L19.4698 9.77016L19.3804 9.98341L19.5338 10.0347C19.6975 10.3206 19.8486 10.5846 20.0023 10.8532L19.8628 11.0001C20.0499 11.1981 20.0209 11.4434 19.9937 11.7241L20.2427 11.6796L20.2822 11.9371L20.1308 11.8434C20.0987 11.9067 20.033 11.9753 20.0349 12.0441C20.0433 12.2714 20.0641 12.4985 20.0971 12.7243C20.105 12.7816 20.1612 12.8336 20.1698 12.8475C20.1452 13.0347 20.0795 13.1962 20.1145 13.3345C20.2101 13.7124 20.0546 14.0343 19.9729 14.3738C19.9452 14.4687 19.9126 14.5619 19.8753 14.6532C19.8428 14.6338 19.8 14.6086 19.7544 14.5814C19.7459 14.5996 19.7261 14.629 19.7311 14.6343C19.8085 14.7162 19.8753 14.7991 19.7889 14.9517L19.6139 15.0986L19.6248 15.5433L19.3907 15.6441C19.4733 15.9411 19.29 16.1778 19.1644 16.4386L19.0398 16.4396L19.0068 16.7778L18.7691 16.9773C18.8098 17.1314 18.8268 17.2738 18.6317 17.3254L18.5098 17.7795L19.3871 17.6299L19.4139 17.5193L19.697 17.4056L19.7539 17.4734C19.7733 17.4656 19.8076 17.4573 19.807 17.4511C19.7959 17.3327 19.8947 17.294 19.9637 17.2465C20.0533 17.1848 20.1628 17.1522 20.2582 17.0976C20.3457 17.0474 20.4182 16.9578 20.5112 16.9335C20.6386 16.9001 20.6242 16.768 20.7113 16.7004C20.8081 16.6253 20.9491 16.6221 21.0181 16.4853C21.0727 16.377 21.2018 16.3065 21.3022 16.2246C21.6154 15.9698 21.8352 15.6381 22.0558 15.3058C22.1913 15.1019 22.3546 14.9158 22.4766 14.7044C22.6751 14.3708 22.8536 14.0254 23.0114 13.6698C23.083 13.5023 23.2539 13.3772 23.2273 13.1643C23.219 13.0988 23.3567 13.0584 23.2549 12.9638C23.238 12.9481 23.2967 12.8599 23.3067 12.8023C23.32 12.7243 23.3148 12.6427 23.3269 12.5643C23.3495 12.4168 23.3787 12.2705 23.4116 12.0879L23.6158 12.3312C23.5562 12.4964 23.5562 12.4964 23.6648 12.8476L23.8139 12.7225C23.7279 12.4883 23.8328 12.2457 23.8088 11.9958L23.9643 12.0166L24.0442 12.3234C24.0764 12.2929 24.134 12.2647 24.1359 12.2317C24.1414 12.1377 24.1241 12.0417 24.1102 11.8833C24.209 11.9515 24.264 11.9894 24.3312 12.0358L24.6508 12.0074L24.4828 12.3257C24.542 12.3651 24.6108 12.4108 24.6948 12.4666L24.6113 12.8208L24.8375 12.7807L24.8112 13.0546L24.5743 13.0963C24.6766 13.1713 24.7298 13.2103 24.7791 13.2466L24.7413 13.389C24.7343 13.3833 24.7049 13.3598 24.6514 13.317L24.5283 13.7667C24.5758 13.7739 24.6129 13.7796 24.5987 13.7774L24.628 14.1093L24.4581 14.1076C24.4748 14.1939 24.4915 14.2802 24.5085 14.3685L24.3444 14.5061C24.2767 14.7461 24.2318 14.9686 24.15 15.1755C24.077 15.3602 23.852 15.4546 23.8319 15.7015L23.596 15.6701L23.426 15.835L23.6766 15.7713C23.5654 16.0339 23.584 16.3664 23.2166 16.4358L23.2025 16.6314L23.0708 16.629C23.0262 16.8159 22.9081 16.9461 22.6798 16.954L22.6429 17.2306L22.424 17.3199C22.417 17.3399 22.4139 17.4008 22.3827 17.4241C22.3482 17.4496 22.281 17.428 22.2404 17.4495C22.1856 17.4852 22.1347 17.5265 22.0884 17.5726C22.0521 17.6103 22.0113 17.6433 21.9668 17.6708C21.9241 17.6908 21.8703 17.688 21.7969 17.6989C21.7948 18.0286 21.4355 17.9116 21.2712 18.1678L21.2369 17.7956C21.1392 17.7891 21.0782 17.9586 21.099 18.1935L20.9955 18.1117C20.8242 18.0978 20.8523 18.2842 20.7679 18.3668L20.5374 18.3496L20.5207 18.472C20.4821 18.4449 20.4514 18.4234 20.3988 18.3866C20.1502 18.4934 19.884 18.6098 19.6125 18.7123C19.519 18.7542 19.4092 18.7442 19.3218 18.6857C19.2375 18.7537 19.1667 18.8616 19.0834 18.8696C18.6219 18.9134 18.1573 18.9313 17.6941 18.9622C17.6218 18.9672 17.5517 18.9958 17.4796 19.008C17.3935 19.0227 17.3063 19.0315 17.2088 19.0443C17.2209 19.0731 17.2387 19.1158 17.2688 19.1878C17.0999 19.2977 16.9894 19.5017 16.744 19.5191L16.6322 19.7989C16.3472 19.8191 16.2483 20.1823 15.9683 20.204L15.8205 20.427C15.7631 20.3916 15.7208 20.3655 15.6757 20.3377C15.6192 20.5021 15.4917 20.554 15.335 20.6147C15.1871 20.672 15.0665 20.7948 14.8855 20.7677C14.8818 20.7923 14.8781 20.8168 14.8706 20.868L14.7361 20.8741L14.6853 20.9938C14.5265 21.0714 14.3705 21.1607 14.2046 21.2255C13.8652 21.3579 13.5646 21.5814 13.1825 21.6183C13.0538 21.6307 12.9304 21.7067 12.8107 21.7657C12.1088 22.1114 11.345 22.2218 10.5736 22.3074C10.1396 22.3581 9.6991 22.3512 9.26342 22.2867C9.12033 22.2649 8.968 22.2307 8.83257 22.2584C8.6852 22.2883 8.57631 22.1902 8.43738 22.1937C8.06181 22.2031 7.7069 22.0498 7.34364 21.9672C6.99021 21.8806 6.64238 21.7699 6.3026 21.6358C5.94263 21.5005 5.57018 21.3744 5.24502 21.1736C4.9385 20.9842 4.59281 20.8524 4.32757 20.5923C4.2953 20.5606 4.21826 20.5726 4.18971 20.54C4.02725 20.3541 3.7925 20.2672 3.61826 20.1027C3.49172 19.9832 3.39008 19.8369 3.258 19.6795L3.3026 19.3727L3.67446 19.2129C3.71765 19.2464 3.74735 19.2693 3.77931 19.294L3.89743 19.1949C4.01564 19.2225 4.13081 19.233 4.23175 19.2775C4.33651 19.3193 4.43119 19.3842 4.50866 19.4673C4.76391 19.7715 5.13846 19.8767 5.45721 20.0708C5.68887 20.2117 5.94084 20.3215 6.17647 20.4623C6.30321 20.5381 6.45787 20.566 6.60179 20.6103C6.92601 20.71 7.23966 20.8447 7.57084 20.9227C7.75362 20.9658 7.92863 21.0519 8.11215 21.0855C8.51093 21.1582 8.91176 21.2269 9.3138 21.2662C10.1615 21.3493 10.9848 21.2095 11.7964 21.0107C11.9719 20.9677 12.1332 20.8666 12.2961 20.7824C12.5133 20.6699 12.7694 20.6543 12.9751 20.5141C13.2722 20.3117 13.6372 20.2308 13.9179 19.9945C14.0198 19.909 14.1553 19.8643 14.2724 19.7958C14.3895 19.7273 14.4561 19.5868 14.6307 19.5915C14.6902 19.5932 14.7583 19.4789 14.807 19.4069C14.9473 19.1986 15.0859 19.0896 15.3325 19.0132L15.3754 18.8495C15.424 18.8496 15.4731 18.8473 15.5218 18.8503C15.5609 18.8526 15.5997 18.8612 15.624 18.8648L15.6354 18.5553C15.4892 18.4866 15.3079 18.4088 15.1333 18.3174C14.9576 18.2253 14.7926 18.1109 14.6156 18.0222C14.4311 17.933 14.2591 17.819 14.1042 17.6835L13.9732 17.67C13.876 17.5542 13.7774 17.4268 13.6679 17.3096C13.5905 17.2267 13.5502 17.0999 13.3991 17.0935C13.3543 17.0917 13.2825 17.0052 13.2716 16.9494C13.2224 16.6977 13.0132 16.5592 12.881 16.3668C12.7639 16.1964 12.6549 16.0208 12.7007 15.7846C12.5735 15.6612 12.4838 15.5043 12.4423 15.3331C12.4157 15.2138 12.3065 15.0986 12.3125 14.9881C12.3203 14.8451 12.2138 14.7758 12.1855 14.6728C12.1254 14.4548 11.9762 14.2324 12.1613 13.9904L11.9732 13.9448L12.0406 13.6623C12.0243 13.6159 11.9835 13.5001 11.9201 13.3203C11.9182 13.1071 11.8622 12.8077 11.9281 12.5423C11.9929 12.2813 11.9608 12.0214 12.0069 11.7681C12.0555 11.4994 12.1416 11.2386 12.2113 10.9745ZM15.5507 9.73915C15.404 9.69723 15.291 9.6649 15.1814 9.63378L15.1978 9.87727C15.1065 9.83499 15.0517 9.80963 14.9887 9.78052C15.0069 9.84566 15.0231 9.90355 15.0382 9.95778L14.9621 10.0216C14.906 9.97402 14.8488 9.92526 14.781 9.86763L14.5247 10.0826C14.2785 9.97815 14.1097 10.0104 14.1246 10.1469C14.1635 10.1551 14.2086 10.153 14.2373 10.174C14.2637 10.1934 14.2724 10.2376 14.3068 10.3071C14.1829 10.3092 14.082 10.298 13.9884 10.3177C13.9353 10.3289 13.8942 10.3907 13.8284 10.446L14.0077 10.4923C14.0142 10.7546 14.0144 10.755 13.806 10.7936C13.7748 10.8673 13.7147 10.9395 13.7263 10.9996C13.7409 11.0745 13.8086 11.1383 13.703 11.1793C13.6345 11.1556 13.5719 11.1338 13.4768 11.1007C13.4905 11.3201 13.5015 11.4955 13.5123 11.6708L13.3724 11.6656L13.416 11.9364L13.2908 12.2132L13.4089 12.239L13.1414 12.6509L13.2426 12.6663C13.3059 12.8495 13.3668 13.026 13.4405 13.2392C13.6058 12.9589 13.4354 12.6934 13.497 12.4444C13.5585 12.1953 13.5826 11.9367 13.6276 11.6552L13.7443 11.7944C13.7202 11.9868 13.7261 12.1476 13.6756 12.286C13.6225 12.4316 13.7021 12.5825 13.6411 12.7135C13.5724 12.8607 13.6563 12.9975 13.6543 13.1386C13.6508 13.3726 13.7884 13.6164 13.6281 13.8302C13.7534 14.0218 13.8388 14.2159 13.8216 14.4479L14.0216 14.6863L13.9459 14.8213C14.0675 14.853 14.1713 14.891 14.1629 15.0446C14.1536 15.2505 14.2364 15.4527 14.3887 15.5959C14.5035 15.7118 14.54 15.8627 14.6188 15.9936C14.6779 16.0919 14.7909 16.161 14.7717 16.299C14.7701 16.31 14.8094 16.3279 14.8298 16.3425L14.9658 16.2932C14.9693 16.3441 14.9795 16.3946 14.9962 16.4433C15.0224 16.4905 15.0572 16.5326 15.0987 16.5672C15.1386 16.6026 15.1948 16.621 15.2302 16.6595C15.261 16.6929 15.2617 16.7657 15.2948 16.7835C15.4863 16.886 15.6459 17.0261 15.8135 17.1631C16.02 17.3283 16.2641 17.4378 16.5219 17.4809C16.7187 17.2588 16.779 17.0028 16.9441 16.7952C17.1195 16.5746 17.1818 16.2653 17.3166 16.0075C17.5721 15.5191 17.6241 14.9445 17.9291 14.4776C17.9522 14.4423 17.9307 14.3765 17.9296 14.3251C17.9228 14.282 17.9223 14.2384 17.9283 14.1955C18.0787 13.6774 18.1642 13.1405 18.1829 12.5973C18.1968 12.303 18.1563 12.0154 18.1094 11.7254C18.0834 11.5646 17.9997 11.4091 18.0027 11.2548C18.008 10.9795 17.852 10.7708 17.7296 10.5599C17.5966 10.3306 17.4061 10.1272 17.2149 9.93913C17.013 9.74829 16.7656 9.6137 16.4984 9.54932C16.4195 9.52853 16.3255 9.58147 16.2417 9.56978C16.1578 9.5581 16.0785 9.50861 15.9859 9.47097L15.9637 9.59854L15.738 9.58153L15.5507 9.73915Z" fill="black" fill-opacity="0.84"/>
</svg>
